<svg width="24" height="25" viewBox="0 0 24 25" fill="none" xmlns="http://www.w3.org/2000/svg">
<g clip-path="url(#clip0_14033_763)">
<path d="M23.9873 12.474C23.9873 11.4707 23.9057 10.7385 23.729 9.97925H12.239V14.5078H18.9834C18.8475 15.6332 18.1132 17.3281 16.4815 18.4669L16.4586 18.6185L20.0915 21.4249L20.3432 21.4499C22.6547 19.3212 23.9873 16.1891 23.9873 12.474Z" fill="#4285F4"/>
<path d="M12.2391 24.4058C15.5433 24.4058 18.3172 23.321 20.3433 21.45L16.4815 18.467C15.4481 19.1856 14.0611 19.6872 12.2391 19.6872C9.0029 19.6872 6.25621 17.5586 5.27709 14.6163L5.13357 14.6285L1.35601 17.5436L1.30661 17.6806C3.31903 21.6668 7.45271 24.4058 12.2391 24.4058Z" fill="#34A853"/>
<path d="M5.27705 14.6164C5.0187 13.8571 4.86919 13.0435 4.86919 12.2029C4.86919 11.3622 5.0187 10.5487 5.26346 9.78944L5.25662 9.62773L1.43173 6.66577L1.30659 6.72513C0.477171 8.37931 0.00125122 10.2369 0.00125122 12.2029C0.00125122 14.1689 0.477171 16.0264 1.30659 17.6806L5.27705 14.6164Z" fill="#FBBC05"/>
<path d="M12.2391 4.7184C14.537 4.7184 16.0871 5.70818 16.971 6.53532L20.4248 3.17274C18.3036 1.20673 15.5432 0 12.2391 0C7.45269 0 3.31903 2.73884 1.30661 6.72507L5.26348 9.78938C6.25619 6.84714 9.00288 4.7184 12.2391 4.7184Z" fill="#EB4335"/>
</g>
<defs>
<clipPath id="clip0_14033_763">
<rect width="24" height="24.4898" fill="white"/>
</clipPath>
</defs>
</svg>
