<svg width="100" height="100" viewBox="0 0 100 100" fill="none" xmlns="http://www.w3.org/2000/svg">
<path d="M14.8 38.1201V46.4401L15.42 46.3201C15.76 46.2601 16.72 46.2001 17.52 46.2001H19L19.04 42.8401L19.1 39.5001L20.76 39.5801L22.4 39.6401V37.9401V36.2201L21.76 36.1001C21.4 36.0401 20.66 35.9801 20.1 35.9601L19.1 35.9001V34.8001V33.7001L21.76 33.7801L24.4 33.8601V32.0201C24.4 30.7201 24.32 30.1601 24.16 30.1201C24.02 30.0601 21.86 29.9801 19.36 29.9201L14.8 29.8001V38.1201Z" fill="#CE0000"/>
<path d="M25.46 33.44C25.54 35.42 25.6 38.96 25.6 41.3V45.52L26.36 45.96C27.1 46.36 27.28 46.38 31.68 46.26L36.22 46.14L36.6 45.4C36.94 44.74 36.98 44.02 37.04 37.2L37.1 29.74L35.32 29.86C32.62 30.04 32.8 29.54 32.8 36.64V42.6H31.52C30.7 42.6 30.16 42.5 30.06 42.34C29.98 42.22 29.86 39.46 29.8 36.26C29.66 29.32 29.86 29.82 27.12 29.8H25.34L25.46 33.44Z" fill="#CE0000"/>
<path d="M38.14 35.62C38.06 38.86 38 42.6 38 43.94V46.4H43.22H48.46L48.32 45.14C48.24 44.46 48.14 43.62 48.08 43.28L47.96 42.66L46.04 42.54C44.96 42.46 43.7 42.4 43.2 42.4H42.3L42.36 36.2L42.44 30H41.66C41.24 30 40.3 29.94 39.58 29.88L38.26 29.74L38.14 35.62Z" fill="#CE0000"/>
<path d="M49.54 35.8C49.46 39.14 49.4 42.88 49.4 44.14V46.4H54.62H59.86L59.72 45.14C59.64 44.46 59.54 43.62 59.48 43.28L59.36 42.66L57.44 42.54C56.36 42.46 55.1 42.4 54.6 42.4H53.7L53.76 37.94C53.78 35.5 53.82 32.72 53.86 31.74L53.9 30H53.1C52.66 30 51.7 29.94 50.98 29.88L49.66 29.74L49.54 35.8Z" fill="#CE0000"/>
<path d="M61.14 30.38C60.84 30.88 60.8 31.56 60.8 35.24C60.8 37.6 60.86 40.92 60.94 42.6L61.06 45.64L61.68 46.02C62.24 46.38 62.68 46.4 66.88 46.36L71.48 46.3L71.88 45.6C72.28 44.94 72.3 44.54 72.36 37.82L72.44 30.76L71.98 30.28L71.54 29.8H66.5H61.48L61.14 30.38ZM67.66 33.4H68.2L68.16 38.24L68.1 43.08L66.7 43.02C65.94 43 65.3 42.96 65.28 42.94C65.26 42.92 65.2 40.7 65.16 38.02L65.06 33.16L66.08 33.28C66.64 33.34 67.34 33.4 67.66 33.4Z" fill="#CE0000"/>
<path d="M73.72 30.5C73.46 31.1 73.4 32.1 73.4 35.68C73.4 38.1 73.46 41.38 73.54 42.92L73.66 45.76L74.34 46.08C74.9 46.34 75.8 46.4 79.6 46.4H84.2L84.62 45.58C84.98 44.86 85.02 44.54 84.9 43.2L84.76 41.64L83.86 41.52C83.36 41.46 82.52 41.4 82 41.4H81.04L80.9 42.52L80.76 43.64L79.34 43.5C78.54 43.42 77.88 43.34 77.88 43.32C77.86 43.32 77.8 40.98 77.76 38.14L77.7 32.98L79.2 33.04L80.7 33.1L80.88 34.24L81.04 35.4H82.92C85.1 35.4 84.92 35.62 85.06 32.76C85.16 31.1 85.14 31.02 84.62 30.52C84.1 30.02 84.08 30.02 79.06 29.88L74.04 29.74L73.72 30.5Z" fill="#CE0000"/>
<path d="M19.5 49.6401C19.46 49.7801 19.4 53.4801 19.36 57.8601L19.28 65.8201L21.4 65.7601L23.5 65.7001L23.62 62.6001C23.7 60.9001 23.76 58.8401 23.78 58.0401C23.78 57.2601 23.86 56.6001 23.96 56.6001C24.04 56.6001 24.54 57.2801 25.08 58.1201C25.62 58.9401 26.12 59.5401 26.2 59.4601C26.28 59.3801 26.8 58.6601 27.34 57.8601C27.9 57.0601 28.4 56.4801 28.48 56.5401C28.54 56.6001 28.6 57.5001 28.6 58.5001C28.6 59.5201 28.66 61.5601 28.74 63.0601L28.86 65.8001H30.94H33V63.1401C33 61.6601 32.94 58.0201 32.86 55.0401L32.74 49.6001H30.52H28.3L27.46 51.0601C26.02 53.5401 26.24 53.5201 24.84 51.3201L23.62 49.4001H21.6C20.16 49.4001 19.56 49.4801 19.5 49.6401Z" fill="#DBDCDF"/>
<path d="M34 57.6V65.8H38.92H43.84L43.76 64.2C43.72 63.04 43.62 62.52 43.4 62.4C43.24 62.3 42.5 62.2 41.78 62.2C41.06 62.2 39.9 62.14 39.22 62.08L38 61.94V60.44V58.94L39.8 59.08L41.6 59.22V57.52V55.82L40.56 55.72C39.98 55.66 39.18 55.58 38.8 55.54L38.1 55.5V54.4V53.3L40.76 53.38L43.4 53.44V52.68C43.4 52.24 43.46 51.44 43.52 50.86L43.66 49.84L42.58 49.72C41.98 49.66 39.82 49.58 37.76 49.52L34 49.42V57.6Z" fill="#DBDCDF"/>
<path d="M70.54 50.12C70.46 50.56 70.4 54.3 70.4 58.44V66H75.52H80.64L80.5 64.24C80.42 63.28 80.32 62.44 80.26 62.34C80.22 62.26 78.9 62.2 77.36 62.2H74.54L74.66 55.9L74.78 49.6H73.62C72.98 49.6 72.06 49.54 71.56 49.48L70.66 49.36L70.54 50.12Z" fill="#DBDCDF"/>
<path d="M45 51.5V53.4H46.7H48.4V59.7V66L48.86 65.92C49.1 65.86 49.98 65.76 50.82 65.7L52.36 65.56L52.48 64.54C52.54 63.96 52.64 61.38 52.72 58.8C52.8 56.22 52.94 53.94 53.04 53.74C53.18 53.46 53.48 53.4 54.68 53.4H56.14L56.26 52.04C56.34 51.3 56.4 50.46 56.4 50.14V49.6H50.7H45V51.5Z" fill="#DBDCDF"/>
<path d="M60.86 49.7801C58.7 49.9001 58.34 50.0801 58.1 51.1001C57.96 51.7401 57.48 65.6801 57.6 65.8201C57.66 65.9001 58.52 65.9001 59.5 65.8201L61.3 65.7001L61.46 63.4201C61.54 62.1601 61.64 61.1001 61.68 61.0601C61.72 61.0201 62.52 60.9201 63.48 60.8601L65.2 60.7401V63.4001V66.0601L67.26 65.9001C68.38 65.8201 69.32 65.7401 69.34 65.7401C69.36 65.7201 69.3 62.4601 69.2 58.4801L69.06 51.2601L68.5 50.4401L67.94 49.6001L65.42 49.6401C64.04 49.6601 61.98 49.7201 60.86 49.7801ZM65 55.6201V57.8401L63.46 57.7001C62.6 57.6201 61.88 57.5401 61.86 57.5201C61.84 57.5201 61.9 56.6401 61.96 55.6001L62.1 53.7001L63.3 53.5801C63.96 53.5201 64.62 53.4601 64.76 53.4401C64.94 53.4001 65 53.9601 65 55.6201Z" fill="#DBDCDF"/>
</svg>
