<svg width="248" height="252" viewBox="0 0 248 252" fill="none" xmlns="http://www.w3.org/2000/svg">
<path d="M243.559 2.04279C225.369 11.9766 208.823 17.6343 197.804 17.6343H194.12L193.725 19.1803C193.1 21.6802 189.844 29.6404 187.936 33.4231C184.088 40.9558 178.66 47.7647 173.989 50.9883C173.003 51.6461 172.443 52.1395 172.772 52.008C178.693 50.0343 190.864 47.37 196.291 46.9095C199.811 46.5805 204.383 46.8437 205.304 47.4029C205.567 47.5673 205.6 47.37 205.435 46.8437C205.304 46.4161 204.975 45.0016 204.712 43.7517C202.936 35.7257 208.659 29.1141 220.04 26.1208C223.033 25.3314 229.941 24.1801 231.652 24.1801C233.066 24.1801 233.099 24.0814 232.211 22.1736C231.421 20.4302 231.356 17.6014 232.046 15.6607C233.296 12.0424 237.013 8.78595 243.296 5.69397L247.309 3.72036L247.539 1.94411C247.638 0.957306 247.704 0.0691833 247.638 0.00339508C247.539 -0.0623894 245.73 0.858627 243.559 2.04279Z" fill="#FF0000"/>
<path d="M0.0814172 1.31907C0.180098 1.6809 0.344565 2.6677 0.476139 3.52293L0.673499 5.06892L3.79838 6.54913C8.239 8.65431 10.5086 10.1016 12.6467 12.2068C16.0019 15.529 17.2189 19.542 15.9032 23.0288C15.64 23.7524 15.3111 24.5747 15.2453 24.8379C15.1137 25.2655 15.7058 25.43 18.7978 25.7589C25.9357 26.5155 32.317 28.3904 36.5274 30.9561C39.1588 32.535 41.8561 35.5612 42.7442 37.8966C43.731 40.4294 43.7639 44.3108 42.8429 46.9752C42.3166 48.4883 42.2837 48.8501 42.6456 48.7185C43.9613 48.1922 47.7769 47.8633 50.1453 48.0278C56.9871 48.587 67.8748 50.8566 75.2101 53.3236C75.539 53.4552 74.9798 52.9618 73.993 52.3039C71.1313 50.3303 66.7236 45.6266 64.125 41.7451C62.8092 39.7715 60.6712 35.9559 59.3225 33.2257C57.0858 28.6206 53.928 20.5289 53.928 19.4105C53.928 19.0158 53.303 18.9171 50.1782 18.9171C41.264 18.9171 29.9816 15.6277 15.1137 8.75299C10.5415 6.61492 2.68 2.50323 0.673499 1.22039C-0.0501567 0.72699 -0.0830501 0.72699 0.0814172 1.31907Z" fill="#FF0000"/>
<path d="M181.357 59.376C179.713 60.2641 175.371 62.9942 171.719 65.4613C168.068 67.8954 164.943 69.9019 164.746 69.9019C164.582 69.9019 163.101 69.244 161.49 68.4217C159.878 67.5993 157.082 66.3823 155.339 65.6586C135.142 57.6655 114.353 56.3827 92.2489 61.8101C83.3676 63.981 76.6574 66.4809 67.0854 71.086C63.5658 72.7965 60.3422 74.178 59.9804 74.178C58.2699 74.178 54.6516 71.7439 45.2112 64.31C39.0272 59.4417 37.547 58.3892 36.7247 58.3892C34.9814 58.3892 35.8366 61.218 40.2772 70.2308C45.4415 80.6251 46.527 83.9474 45.2112 85.0329C43.9942 86.0526 40.5403 83.9145 27.3501 73.9478C15.3769 64.9021 11.3967 62.3035 8.56791 61.6456C6.92323 61.2838 6.23247 61.7772 6.23247 63.2903C6.23247 66.2507 9.55471 71.0202 20.0477 83.0592C27.2185 91.3155 29.6855 94.4404 30.8368 96.8087C31.8565 98.8481 31.6262 99.6047 29.9487 99.7691C28.4027 99.9336 25.8041 99.0784 18.5675 95.9864C10.4757 92.5655 6.75877 91.2826 4.78516 91.2826C3.43653 91.2826 3.20627 91.4142 2.64708 92.3023C2.12079 93.1575 2.0879 93.5194 2.35104 94.3417C3.10759 96.4798 10.0152 102.466 18.732 108.552C21.0016 110.131 23.041 111.611 23.2713 111.808C23.6002 112.137 23.5344 112.598 23.0081 114.144C20.8701 120.36 17.9096 134.439 16.89 143.254C16.1005 149.866 16.1005 162.004 16.89 167.76C17.4491 171.839 19.028 178.878 19.6201 179.865C19.8175 180.227 20.9687 179.865 25.6396 177.957C31.8565 175.391 31.9552 175.293 36.0997 170.293L37.251 168.878L36.0668 166.115C35.3761 164.602 34.8498 163.254 34.8498 163.155C34.8498 163.023 36.1326 161.313 37.6786 159.339L40.5403 155.721L38.0733 152.53C36.7247 150.787 35.5076 149.142 35.3761 148.912C35.2116 148.649 36.6589 146.741 39.4549 143.485C41.8561 140.754 43.8626 138.32 43.9613 138.123C44.0271 137.893 43.0074 135.755 41.6258 133.353C40.2772 130.952 39.1917 128.913 39.2575 128.88C39.422 128.715 53.928 136.478 53.928 136.741C53.928 136.84 52.6122 138.485 51.0005 140.327C49.29 142.3 48.1716 143.879 48.3032 144.077C51.6583 148.517 53.599 151.182 53.599 151.379C53.599 151.543 52.8754 152.399 51.9544 153.287C51.0663 154.175 50.3097 155.03 50.3097 155.162C50.3097 155.293 51.7241 156.543 53.4346 157.958C55.145 159.339 56.5595 160.589 56.5595 160.721C56.5595 160.819 55.5727 162.234 54.3556 163.846C53.1385 165.457 51.8228 167.234 51.3952 167.793L50.6386 168.812L54.6516 170.293C62.1842 173.089 67.4143 174.437 67.4143 173.615C67.4143 173.45 66.9867 172.431 66.4604 171.345C63.3026 164.898 62.9408 148.978 65.8025 139.768C67.6775 133.649 72.3154 126.808 78.6968 120.656C94.0909 105.854 116.162 101.085 142.247 106.94C153.496 109.44 162.937 114.867 171.062 123.452C181.127 134.044 187.344 147.629 189.482 163.648C190.074 168.056 189.975 177.792 189.317 182.233C187.081 196.936 181.357 208.581 171.522 218.416C167.147 222.791 163.43 225.685 158.299 228.613C142.642 237.626 121.458 240.981 101.623 237.626C74.4864 233.053 55.9674 214.765 48.1716 184.865C46.198 177.266 44.7836 168.122 44.6849 161.839L44.6191 159.208L44.3889 161.346C44.2573 162.53 44.1257 166.017 44.0928 169.109C43.9942 185.654 46.9875 200.127 53.1056 212.495C57.0858 220.587 61.0988 226.113 67.3814 232.132C90.6042 254.5 128.859 258.381 162.147 241.737C171.456 237.066 179.12 231.573 186.324 224.337C200.37 210.291 208.593 193.614 211.915 172.529C212.869 166.378 212.968 149.701 212.047 142.925C210.731 133.09 208.396 123.189 205.205 113.683C203.692 109.21 203.33 107.729 203.56 107.203C204.119 105.92 205.863 104.177 211.915 98.881C217.902 93.6509 219.81 91.6773 220.829 89.7366C221.981 87.467 221.29 86.5131 218.626 86.7433C217.277 86.8749 215.402 87.6972 209.481 90.7234C199.35 95.9206 196.324 96.9074 193.561 95.7561C192.212 95.164 191.752 94.3746 191.752 92.5326C191.752 89.9011 193.659 86.6117 199.975 78.4542C204.876 72.1057 206.225 70.0663 206.225 69.0137C206.225 68.3888 206.06 68.2572 205.238 68.2572C203.823 68.2572 200.435 70.165 191.752 75.8556C182.443 81.9409 180.107 83.1908 178.792 82.8619C177.574 82.5659 175.798 80.7567 175.305 79.3094C174.943 78.1581 174.976 78.0594 177.969 73.2899C183.594 64.3429 186.357 58.126 184.844 57.83C184.581 57.7642 183.002 58.4549 181.357 59.376ZM31.4618 132.728C34.3235 134.439 34.1919 139.241 31.2644 140.787C27.1856 142.892 22.745 138.485 24.916 134.439C26.133 132.169 29.225 131.347 31.4618 132.728Z" fill="#FF0000"/>
<path d="M122.083 113.88C117.314 122.104 99.9788 152.596 99.9788 152.76C99.9788 153.057 105.9 156.247 106.459 156.247C106.689 156.247 107.676 154.899 108.63 153.287L110.373 150.326L123.728 150.228L137.115 150.162L138.53 152.596L139.977 155.063L143.168 153.188C145.438 151.839 146.293 151.182 146.161 150.82C146.03 150.425 123.794 112.104 123.465 111.742C123.432 111.677 122.807 112.63 122.083 113.88Z" fill="#7A7A80"/>
<path d="M149.45 148.419C150.569 150.392 153.76 155.852 156.523 160.622L161.555 169.24L168.792 157.662C172.772 151.28 176.16 145.787 176.324 145.458C176.62 144.932 175.831 144.899 162.016 144.899H147.378L149.45 148.419Z" fill="#FF0000"/>
<path d="M70.309 147.761C75.8351 156.543 84.3216 169.799 84.6834 170.161C85.0124 170.523 86.3939 168.352 92.3476 157.925L99.6171 145.228H84.1571H68.7301L70.309 147.761Z" fill="#FF0000"/>
<path d="M148.957 163.253L145.766 165.128L147.576 168.253C148.562 169.964 149.648 171.806 149.977 172.365L150.569 173.352L143.924 184.864L137.28 196.377L133.267 196.476L129.254 196.575V200.884V205.193L153.332 204.995C166.555 204.864 177.443 204.732 177.509 204.666C177.64 204.502 152.51 161.346 152.279 161.346C152.181 161.346 150.7 162.201 148.957 163.253Z" fill="#7A7A80"/>
<path d="M93.5975 163.714C93.3672 164.142 87.874 173.714 81.4269 184.996L69.684 205.522L83.0716 205.324C90.4397 205.193 101.262 205.094 107.117 205.094H117.741V200.818V196.542H114.057L110.34 196.509L103.794 185.161C100.176 178.878 97.2487 173.615 97.2487 173.385C97.2487 173.187 98.0381 171.641 98.992 169.931L100.768 166.839L99.9788 166.313C99.5512 166.017 98.071 165.161 96.6566 164.372L94.0909 162.957L93.5975 163.714Z" fill="#7A7A80"/>
<path d="M109.518 209.239C109.518 209.798 123.103 230.751 123.333 230.521C123.465 230.389 126.524 225.488 130.175 219.633L136.787 209.041H123.136C115.669 209.041 109.518 209.14 109.518 209.239Z" fill="#FF0000"/>
</svg>
